<svg xmlns="http://www.w3.org/2000/svg" viewBox="0 0 32 32" width="32" height="32">
  <rect width="32" height="32" rx="6" fill="#0a0a0a"/>
  <g transform="translate(4, 5)" fill="#dc2626">
    <!-- Three claw slash marks -->
    <path d="M6 2 Q5 8, 4 14 Q3.5 16, 4 18 L5.5 18 Q5 16, 5.5 14 Q6.5 8, 7.5 2 Z" opacity="0.9"/>
    <path d="M12 1 Q11 7, 10 13 Q9.5 15, 10 17 L11.5 17 Q11 15, 11.5 13 Q12.5 7, 13.5 1 Z"/>
    <path d="M18 2 Q17 8, 16 14 Q15.5 16, 16 18 L17.5 18 Q17 16, 17.5 14 Q18.5 8, 19.5 2 Z" opacity="0.9"/>
  </g>
</svg>
